<?xml version="1.0" encoding="utf-8"?>
<!-- Generator: Adobe Illustrator 24.1.2, SVG Export Plug-In . SVG Version: 6.00 Build 0)  -->
<svg version="1.1" id="Layer_1" xmlns="http://www.w3.org/2000/svg" xmlns:xlink="http://www.w3.org/1999/xlink" x="0px" y="0px"
	 viewBox="0 0 32 33" style="enable-background:new 0 0 32 33;" xml:space="preserve">
<style type="text/css">
	.st0{fill:#9FEF00;}
</style>
<desc>Created with Sketch.</desc>
<path class="st0" d="M29.6,9.3C29.6,9.3,29.6,9.3,29.6,9.3c0-0.3-0.1-0.6-0.4-0.8c0,0,0,0,0,0c0,0,0,0-0.1-0.1c0,0-0.1,0-0.1-0.1
	c0,0,0,0,0,0L16.6,1.2c0,0-0.1,0-0.1,0C16.3,1,16.1,1,15.9,1c-0.1,0-0.2,0-0.3,0.1c-0.1,0-0.1,0.1-0.2,0.1L3,8.3c0,0,0,0,0,0
	c0,0,0,0,0,0c0,0,0,0,0,0C2.8,8.4,2.8,8.5,2.7,8.6c0,0,0,0,0,0C2.5,8.8,2.4,9,2.4,9.3c0,0,0,0,0,0c0,0,0,0,0,0v14.3
	c0,0.4,0.2,0.8,0.6,1l12.4,7.2c0,0,0,0,0.1,0c0,0,0,0,0,0c0.1,0,0.1,0.1,0.2,0.1c0,0,0,0,0,0c0.1,0,0.2,0,0.2,0c0.1,0,0.2,0,0.2,0
	c0,0,0,0,0,0c0.1,0,0.1,0,0.2-0.1c0,0,0,0,0,0c0,0,0,0,0.1,0L29,24.7c0.4-0.2,0.6-0.6,0.6-1L29.6,9.3C29.6,9.4,29.6,9.3,29.6,9.3z
	 M7.3,8.9L15.7,4c0.2-0.1,0.4-0.1,0.5,0l8.4,4.9c0.4,0.2,0.4,0.7,0,0.9l-8.4,4.9c-0.2,0.1-0.4,0.1-0.5,0L7.3,9.8
	C6.9,9.6,6.9,9.1,7.3,8.9z M14.5,27.4c0,0.4-0.4,0.7-0.8,0.5L5.3,23C5.1,22.9,5,22.7,5,22.5v-9.7c0-0.4,0.4-0.7,0.8-0.5l8.4,4.9
	c0.2,0.1,0.3,0.3,0.3,0.5V27.4z M27,22.5c0,0.2-0.1,0.4-0.3,0.5l-8.4,4.9c-0.4,0.2-0.8-0.1-0.8-0.5v-9.7c0-0.2,0.1-0.4,0.3-0.5
	l8.4-4.9c0.4-0.2,0.8,0.1,0.8,0.5V22.5z"/>
</svg>
